<svg xmlns="http://www.w3.org/2000/svg" viewBox="0 0 435.92 59.9"><defs><style>.cls-1{fill:#ed1c24;fill-rule:evenodd;}.cls-2{fill:#fff;}</style></defs><g id="Layer_2" data-name="Layer 2"><g id="Layer_1-2" data-name="Layer 1"><path class="cls-1" d="M20,29.16V21h6.62c2.41,0,4.76,1.27,4.76,4.07S29,29.16,26.62,29.16ZM30,54.29A24.27,24.27,0,0,1,12.68,47.1H20V36.71h4.17L31.08,47.1h11L34,35.35c4-1.67,7.07-4.94,7.07-10.25,0-9.09-6.7-12.31-14.47-12.31H12.68A24.34,24.34,0,1,1,30,54.29ZM5.61,30A24.22,24.22,0,0,1,10.5,15.32V44.58A24.22,24.22,0,0,1,5.61,30ZM30,0a30,30,0,1,0,30,30A30,30,0,0,0,30,0Z"/><path class="cls-2" d="M288,7.31l-.91,9.74c-4.33-1.3-18.88-5.57-18.38,2.59.46,7.5,21.67,3.8,21.67,19.14,0,17.82-21.8,17.61-34.18,14.07l.95-10.28c4.6,2.09,20.57,5.87,20.44-1.85-.11-6.82-22.25-5.16-21.75-20.49.54-16.44,20-15.1,32.16-12.92Z"/><path class="cls-2" d="M153,36.48V54.05l-10.63,0V50.21c-2.26,1.95-3.08,2.55-4.78,3.2a20.12,20.12,0,0,1-7.21,1.37c-4.55,0-6.42-1-8.59-3S119,47.2,119,44a10,10,0,0,1,4.61-8.77c2.7-1.68,6.76-2.21,13.91-2.21.87,0,1.47,0,2.34,0a1.54,1.54,0,0,0,1.19-.62c.59-.76-.33-3-1.76-4s-2.88-1.11-5.61-1.11a27.86,27.86,0,0,0-5.92.69,38.57,38.57,0,0,0-5.65,2.06L122,22.53a28.3,28.3,0,0,1,7.51-2.45,41.1,41.1,0,0,1,7.33-.58c5.59,0,9.49,1.58,12.1,4.31S153,30.13,153,36.48Zm-16.62,2.78c-2.09,0-3.84-.06-4.81.53a3.46,3.46,0,0,0-1.79,3.41,3.86,3.86,0,0,0,1.11,3,4.74,4.74,0,0,0,3.4.7c2.25-.23,3.65-.72,5-2.21A9.72,9.72,0,0,0,141.67,40l.23-.81-5.48,0Z"/><path class="cls-2" d="M365.19,36.4V54l-10.63,0V50.12c-2.26,2-3.09,2.56-4.79,3.21a20.09,20.09,0,0,1-7.21,1.36c-4.54,0-6.41-1-8.58-3s-2.85-4.55-2.79-7.77c.08-3.76,1.58-6.9,4.62-8.78,2.7-1.68,6.76-2.2,13.9-2.2h2.35a1.5,1.5,0,0,0,1.18-.61c.6-.76-.32-3-1.75-4s-2.89-1.11-5.62-1.11a27.77,27.77,0,0,0-5.91.69A38.66,38.66,0,0,0,334.29,30l-.17-7.52A28.55,28.55,0,0,1,341.63,20a41.14,41.14,0,0,1,7.34-.58c5.59,0,9.49,1.58,12.09,4.31s4.13,6.32,4.13,12.67Zm-16.62,2.78c-2.09,0-3.84-.07-4.82.52A3.5,3.5,0,0,0,342,43.11a3.87,3.87,0,0,0,1.12,3,4.67,4.67,0,0,0,3.39.69c2.26-.22,3.66-.71,5-2.2a9.64,9.64,0,0,0,2.38-4.65l.23-.81-5.48,0Z"/><path class="cls-2" d="M183,6.21h11.66V54L183.9,54V49.2a10.19,10.19,0,0,1-5.47,4.7,15.8,15.8,0,0,1-7.25.87,16.2,16.2,0,0,1-10.74-5.83c-1.71-2-3.52-6.57-3.52-11.77s1-9.39,3.76-12.43a15.26,15.26,0,0,1,11.06-5.24c3.57-.11,8.86.42,11.25,4.28V6.21Zm-7.27,22.22a5.46,5.46,0,0,0-4.59,2.47,10.63,10.63,0,0,0-1.8,6.4,10,10,0,0,0,1.8,6.28A5.79,5.79,0,0,0,176,45.9a5.89,5.89,0,0,0,4.94-2.32,10.24,10.24,0,0,0,1.8-6.43,9.91,9.91,0,0,0-1.89-6.36,6.18,6.18,0,0,0-5.09-2.36Z"/><path class="cls-2" d="M294.45,6.17h11.83V23.26a8.47,8.47,0,0,1,4-3.52c3.91-1.86,11-.86,14.35,3.49,1.91,2.53,2.37,6.85,2.37,11.58V54H315.72V37.15c0-2.58.12-5.13-.77-6.72s-2.53-1.78-3.88-1.77a4.09,4.09,0,0,0-4,2c-1,1.67-.81,4.89-.81,7.55V54H294.45V6.17Z"/><path class="cls-2" d="M397.61,21.29l-1,8.44a13.5,13.5,0,0,0-3.12-1.43,12.83,12.83,0,0,0-3.29-.44c-5.75,0-9,3.64-9,9.27,0,2.79.69,4.92,2.46,6.59a9.49,9.49,0,0,0,7,2.4,13.49,13.49,0,0,0,3.61-.47,30.74,30.74,0,0,0,3.38-1.22l.42,9a28.2,28.2,0,0,1-10.67,1.26c-5.8-.24-9.93-1.75-13.22-5.06-3.58-3.6-4.9-7.31-4.89-12.45,0-5.47,1.59-9.55,5-12.92s8.05-4.73,14-4.73a24.31,24.31,0,0,1,4.48.43,33.25,33.25,0,0,1,4.85,1.31Z"/><path class="cls-2" d="M234.43,19.78q9,0,14.14,4.65t5.09,12.89q0,8.19-5.09,12.83T234.43,54.8q-9,0-14.09-4.65t-5.08-12.83q0-8.25,5.08-12.89t14.09-4.65Zm-.25,7.77a6.09,6.09,0,0,0-5.15,2.7,11.81,11.81,0,0,0-2,7.15,11.7,11.7,0,0,0,2,7.09,6.31,6.31,0,0,0,10.33,0,11.76,11.76,0,0,0,1.95-7.12,12,12,0,0,0-1.95-7.17,6.08,6.08,0,0,0-5.18-2.68Z"/><polygon class="cls-2" points="402.38 6.17 413.8 6.17 413.8 33.01 422.71 20.28 435.92 20.28 423.9 35.64 435.74 53.99 422.11 53.99 413.8 38.14 413.67 53.99 402.38 53.99 402.38 6.17 402.38 6.17"/><path class="cls-2" d="M91.92,15.32v10.4l3.88-.09c2.38-.06,4.31,0,5.52-.8s1.57-1.89,1.63-4.31c0-1.82-.29-3.84-1.64-4.44s-3.89-.63-6.76-.7l-2.63-.06ZM78.77,6.11H97.19c6.13,0,10.66.74,13.62,2.8s4.34,5.07,4.57,9.2c.23,4.33-.87,6.05-2.55,8A16.84,16.84,0,0,1,105,30.38c4.44,1.37,5.5,3.25,6.88,7.2.17.47.32,1,.48,1.43l5.25,15H104.35l-3.74-13.12c-.6-2.13-1.18-3.39-2.45-4.16a8.73,8.73,0,0,0-4.5-1.07l-1.86-.11V54h-13V6.11Z"/><polygon class="cls-2" points="199.26 54.02 211.09 54.02 211.09 20.68 199.26 20.68 199.26 54.02 199.26 54.02"/><polygon class="cls-2" points="199.26 15.18 211.09 15.18 211.09 6.27 199.26 6.27 199.26 15.18 199.26 15.18"/></g></g></svg>